<?xml version="1.0" encoding="UTF-8"?>
<svg width="20px" height="20px" viewBox="0 0 20 20" version="1.1" xmlns="http://www.w3.org/2000/svg" xmlns:xlink="http://www.w3.org/1999/xlink">
    <!-- Generator: Sketch 58 (84663) - https://sketch.com -->
    <title>instagram [#167]</title>
    <desc>Created with Sketch.</desc>
    <g id="Icons" stroke="none" stroke-width="1" fill="none" fill-rule="evenodd">
        <g id="Social" transform="translate(-300.000000, -60.000000)" fill="#FFFFFF">
            <g id="icons" transform="translate(20.000000, 20.000000)">
                <path d="M285.869652,40.1227269 C284.241769,40.1961774 282.830805,40.5941997 281.691486,41.728712 C280.548187,42.8691798 280.155147,44.2855833 280.081514,45.8965313 C280.035742,46.902009 279.768077,54.4981797 280.544207,56.4902762 C281.067597,57.8342218 282.098457,58.8674916 283.454694,59.3925633 C284.087538,59.6387217 284.809936,59.8054742 285.869652,59.8541104 C294.730467,60.2551103 298.015089,60.036744 299.400182,56.4902762 C299.645956,55.858999 299.815113,55.1373975 299.86188,54.080306 C300.26686,45.1967664 299.796207,43.2711724 298.251908,41.728712 C297.027016,40.5068531 295.5862,39.6750759 285.869652,40.1227269 M285.951245,58.0674767 C284.981083,58.0238034 284.454707,57.8620138 284.103459,57.7260312 C283.219865,57.3826005 282.556174,56.721546 282.214876,55.8431178 C281.623823,54.3294421 281.819846,47.1402268 281.872583,45.9769298 C281.924325,44.8374546 282.155174,43.7962442 282.959165,42.992259 C283.954203,41.9996848 285.239792,41.5133234 293.993144,41.908368 C295.135448,41.9599818 296.179243,42.190259 296.985224,42.992259 C297.980262,43.9848333 298.473801,45.2801427 298.071806,53.9999074 C298.028024,54.9676673 297.865833,55.4927391 297.729513,55.8431178 C296.829003,58.1508529 294.757333,58.4714544 285.951245,58.0674767 M294.089663,44.689561 C294.089663,45.3466452 294.623998,45.8806501 295.283709,45.8806501 C295.943419,45.8806501 296.47875,45.3466452 296.47875,44.689561 C296.47875,44.0324768 295.943419,43.4984719 295.283709,43.4984719 C294.623998,43.4984719 294.089663,44.0324768 294.089663,44.689561 M284.862673,49.9879223 C284.862673,52.8028629 287.150266,55.0847911 289.972194,55.0847911 C292.794123,55.0847911 295.081716,52.8028629 295.081716,49.9879223 C295.081716,47.1729818 292.794123,44.8920461 289.972194,44.8920461 C287.150266,44.8920461 284.862673,47.1729818 284.862673,49.9879223 M286.655732,49.9879223 C286.655732,48.1615857 288.140329,46.6796724 289.972194,46.6796724 C291.80406,46.6796724 293.288657,48.1615857 293.288657,49.9879223 C293.288657,51.8152515 291.80406,53.2971649 289.972194,53.2971649 C288.140329,53.2971649 286.655732,51.8152515 286.655732,49.9879223" id="instagram-[#167]"></path>
            </g>
        </g>
    </g>
</svg>