<?xml version="1.0" encoding="UTF-8"?>
<svg width="20px" height="20px" viewBox="0 0 20 20" version="1.1" xmlns="http://www.w3.org/2000/svg" xmlns:xlink="http://www.w3.org/1999/xlink">
    <!-- Generator: Sketch 58 (84663) - https://sketch.com -->
    <title>arrow_right [#363]</title>
    <desc>Created with Sketch.</desc>
    <g id="Icons" stroke="none" stroke-width="1" fill="none" fill-rule="evenodd">
        <g id="Arrows" transform="translate(-380.000000, -100.000000)" fill="#FFFFFF">
            <g id="icons" transform="translate(20.000000, 20.000000)">
                <path d="M371.127681,80.2927432 C370.737008,79.9024189 370.104537,79.9024189 369.714864,80.2927432 C369.324191,80.6830674 369.324191,81.3149734 369.714864,81.7042994 L376.149475,88.1421538 C376.464211,88.4566094 376.241398,89.0016658 375.79677,89.0016658 L361.016149,89.0016658 C360.464611,89.0016658 360,89.4409054 360,89.9919514 L360,89.9959445 C360,90.5469905 360.464611,90.9982093 361.016149,90.9982093 L375.79677,90.9982093 C376.241398,90.9982093 376.464211,91.5282916 376.149475,91.8427472 L369.68389,98.2995688 C369.293217,98.6888947 369.293217,99.3188042 369.68389,99.7091285 L369.68389,99.7081302 C370.073563,100.097456 370.706034,100.097456 371.096707,99.7071319 L379.41474,91.3965197 L379.41474,91.3965197 C380.195087,90.6168695 380.195087,89.3520592 379.41474,88.572409 C379.233892,88.3927201 370.946832,80.112056 371.127681,80.2927432" id="arrow_right-[#363]"></path>
            </g>
        </g>
    </g>
</svg>