<?xml version="1.0" encoding="utf-8"?>
<!-- Generator: Adobe Illustrator 22.1.0, SVG Export Plug-In . SVG Version: 6.00 Build 0)  -->
<svg version="1.1" id="Livello_1" xmlns="http://www.w3.org/2000/svg" xmlns:xlink="http://www.w3.org/1999/xlink" x="0px" y="0px"
	 viewBox="0 0 20 20" style="enable-background:new 0 0 20 20;" xml:space="preserve">
<style type="text/css">
	.st0{fill:#003249;}
</style>
<title>calendar [#1322]</title>
<desc>Created with Sketch.</desc>
<g id="Icons">
	<g id="Education-_x26_-Time" transform="translate(-20.000000, -20.000000)">
		<g id="icons" transform="translate(20.000000, 20.000000)">
			<path id="calendar-_x5B__x23_1322_x5D_" class="st0" d="M18,8H2V5c0-0.5,0.4-1,1-1h1v2h2V4h8v2h2V4h1c0.6,0,1,0.4,1,1V8z M18,17
				c0,0.5-0.4,1-1,1H3c-0.6,0-1-0.4-1-1v-7h16V17z M0.1,17.8c0,1.1,1,2.2,2.1,2.2h16c1.1,0,1.9-1,1.9-2.2c0-0.4,0-12.4,0-13.1
				C20,2.6,19.7,2,16,2V0h-2v2H6V0H4v2H2C0.9,2,0,2.9,0,4L0.1,17.8z"/>
		</g>
	</g>
</g>
</svg>
