<?xml version="1.0" encoding="UTF-8"?>
<svg width="20px" height="20px" viewBox="0 0 20 20" version="1.1" xmlns="http://www.w3.org/2000/svg" xmlns:xlink="http://www.w3.org/1999/xlink">
    <!-- Generator: Sketch 58 (84663) - https://sketch.com -->
    <title>message [#1579]</title>
    <desc>Created with Sketch.</desc>
    <g id="Icons" stroke="none" stroke-width="1" fill="none" fill-rule="evenodd">
        <g id="Messages-&amp;-Email" transform="translate(-20.000000, -20.000000)" fill="#FFFFFF">
            <g id="icons" transform="translate(20.000000, 20.000000)">
                <path d="M9.95772784,0 C3.99972784,0 -0.735272159,5.127 0.0947278412,11.125 C0.623727841,14.947 3.52272784,18.156 7.31972784,19.168 C8.73372784,19.545 10.1937278,19.625 11.6597278,19.372 C12.8837278,19.16 14.1397278,19.255 15.3387278,19.555 L16.7957278,19.919 L16.7957278,19.919 C18.6847278,20.392 20.4007278,18.711 19.9177278,16.859 C19.9177278,16.859 19.6477278,15.823 19.6397278,15.79 C19.3377278,14.63 19.2727278,13.405 19.5847278,12.248 C19.9707278,10.822 20.0357278,9.269 19.6887278,7.66 C18.7707278,3.415 14.8727278,0 9.95772784,0 M9.95772784,2 C13.9097278,2 17.0047278,4.71 17.7337278,8.083 C18.0007278,9.319 17.9737278,10.544 17.6547278,11.726 C16.3047278,16.718 20.2517278,18.722 15.8237278,17.614 C14.3507278,17.246 12.8157278,17.142 11.3187278,17.401 C10.1637278,17.601 8.99372784,17.544 7.83472784,17.236 C4.80772784,16.429 2.49272784,13.863 2.07572784,10.851 C1.40472784,5.997 5.26872784,2 9.95772784,2 L9.95772784,2" id="message-[#1579]"></path>
            </g>
        </g>
    </g>
</svg>