<?xml version="1.0" encoding="UTF-8"?>
<svg width="20px" height="20px" viewBox="0 0 20 20" version="1.1" xmlns="http://www.w3.org/2000/svg" xmlns:xlink="http://www.w3.org/1999/xlink">
    <!-- Generator: Sketch 58 (84663) - https://sketch.com -->
    <title>arrow_left [#361]</title>
    <desc>Created with Sketch.</desc>
    <g id="Icons" stroke="none" stroke-width="1" fill="none" fill-rule="evenodd">
        <g id="Arrows" transform="translate(-60.000000, -140.000000)" fill="#FFFFFF">
            <g id="icons" transform="translate(20.000000, 20.000000)">
                <path d="M48.87975,139.707244 C49.27075,140.097585 49.90375,140.097585 50.29375,139.707244 C50.68475,139.316903 50.68475,138.684969 50.29375,138.295626 L43.85375,131.866475 C43.53875,131.552006 43.76175,131.014912 44.20675,131.014912 L58.99975,131.014912 C59.55175,131.014912 59.99975,130.558682 59.99975,130.007612 L59.99975,130.003619 C59.99975,129.452549 59.55175,129.018282 58.99975,129.018282 L44.20675,129.018282 C43.76175,129.018282 43.53875,128.48019 43.85375,128.16572 L50.32475,121.704623 C50.71575,121.314282 50.71575,120.682349 50.32475,120.292007 L50.32475,120.292007 C49.93475,119.902664 49.30175,119.902664 48.91075,120.292007 L40.58575,128.603981 C39.80475,129.383665 39.80475,130.647532 40.58575,131.427217 C40.78875,131.629875 49.04075,139.867973 48.87975,139.707244" id="arrow_left-[#361]"></path>
            </g>
        </g>
    </g>
</svg>